<?xml version="1.0" encoding="UTF-8" standalone="no"?>
<!DOCTYPE svg PUBLIC "-//W3C//DTD SVG 1.1//EN"
 "http://www.w3.org/Graphics/SVG/1.1/DTD/svg11.dtd">
<!-- Generated by graphviz version 2.49.3 (20211023.0002)
 -->
<!-- Pages: 1 -->
<svg width="1180pt" height="476pt"
 viewBox="0.00 0.00 1179.54 476.00" xmlns="http://www.w3.org/2000/svg" xmlns:xlink="http://www.w3.org/1999/xlink">
<g id="graph0" class="graph" transform="scale(1 1) rotate(0) translate(4 472)">
<polygon fill="white" stroke="transparent" points="-4,4 -4,-472 1175.54,-472 1175.54,4 -4,4"/>
<!-- [root] data.metal_project.this (expand) -->
<g id="node1" class="node">
<title>[root] data.metal_project.this (expand)</title>
<polygon fill="none" stroke="black" points="506.04,-108 363.04,-108 363.04,-72 506.04,-72 506.04,-108"/>
<text text-anchor="middle" x="434.54" y="-86.3" font-family="Times New Roman,serif" font-size="14.00">data.metal_project.this</text>
</g>
<!-- [root] provider[&quot;registry.terraform.io/equinix/metal&quot;] -->
<g id="node11" class="node">
<title>[root] provider[&quot;registry.terraform.io/equinix/metal&quot;]</title>
<polygon fill="none" stroke="black" points="263.54,-36 13.52,-18 263.54,0 513.56,-18 263.54,-36"/>
<text text-anchor="middle" x="263.54" y="-14.3" font-family="Times New Roman,serif" font-size="14.00">provider[&quot;registry.terraform.io/equinix/metal&quot;]</text>
</g>
<!-- [root] data.metal_project.this (expand)&#45;&gt;[root] provider[&quot;registry.terraform.io/equinix/metal&quot;] -->
<g id="edge1" class="edge">
<title>[root] data.metal_project.this (expand)&#45;&gt;[root] provider[&quot;registry.terraform.io/equinix/metal&quot;]</title>
<path fill="none" stroke="black" d="M392.71,-71.88C367.08,-61.39 334.3,-47.97 308.18,-37.27"/>
<polygon fill="black" stroke="black" points="309.46,-34.02 298.88,-33.47 306.81,-40.49 309.46,-34.02"/>
</g>
<!-- [root] var.metal_project_name -->
<g id="node14" class="node">
<title>[root] var.metal_project_name</title>
<polygon fill="none" stroke="black" points="675.54,-36 531.54,-36 531.54,0 681.54,0 681.54,-30 675.54,-36"/>
<polyline fill="none" stroke="black" points="675.54,-36 675.54,-30 "/>
<polyline fill="none" stroke="black" points="681.54,-30 675.54,-30 "/>
<text text-anchor="middle" x="606.54" y="-14.3" font-family="Times New Roman,serif" font-size="14.00">var.metal_project_name</text>
</g>
<!-- [root] data.metal_project.this (expand)&#45;&gt;[root] var.metal_project_name -->
<g id="edge2" class="edge">
<title>[root] data.metal_project.this (expand)&#45;&gt;[root] var.metal_project_name</title>
<path fill="none" stroke="black" d="M476.62,-71.88C500.34,-62.22 530.16,-50.09 555.24,-39.88"/>
<polygon fill="black" stroke="black" points="556.66,-43.08 564.6,-36.07 554.02,-36.6 556.66,-43.08"/>
</g>
<!-- [root] metal_device.this (expand) -->
<g id="node2" class="node">
<title>[root] metal_device.this (expand)</title>
<polygon fill="none" stroke="black" points="615.04,-180 502.04,-180 502.04,-144 615.04,-144 615.04,-180"/>
<text text-anchor="middle" x="558.54" y="-158.3" font-family="Times New Roman,serif" font-size="14.00">metal_device.this</text>
</g>
<!-- [root] metal_device.this (expand)&#45;&gt;[root] data.metal_project.this (expand) -->
<g id="edge6" class="edge">
<title>[root] metal_device.this (expand)&#45;&gt;[root] data.metal_project.this (expand)</title>
<path fill="none" stroke="black" d="M528.21,-143.88C511.84,-134.64 491.46,-123.13 473.89,-113.21"/>
<polygon fill="black" stroke="black" points="475.42,-110.06 464.99,-108.19 471.98,-116.15 475.42,-110.06"/>
</g>
<!-- [root] var.billing -->
<g id="node12" class="node">
<title>[root] var.billing</title>
<polygon fill="none" stroke="black" points="741.04,-108 676.04,-108 676.04,-72 747.04,-72 747.04,-102 741.04,-108"/>
<polyline fill="none" stroke="black" points="741.04,-108 741.04,-102 "/>
<polyline fill="none" stroke="black" points="747.04,-102 741.04,-102 "/>
<text text-anchor="middle" x="711.54" y="-86.3" font-family="Times New Roman,serif" font-size="14.00">var.billing</text>
</g>
<!-- [root] metal_device.this (expand)&#45;&gt;[root] var.billing -->
<g id="edge7" class="edge">
<title>[root] metal_device.this (expand)&#45;&gt;[root] var.billing</title>
<path fill="none" stroke="black" d="M595.97,-143.88C617.26,-134.14 644.06,-121.87 666.5,-111.61"/>
<polygon fill="black" stroke="black" points="668.18,-114.69 675.81,-107.35 665.26,-108.32 668.18,-114.69"/>
</g>
<!-- [root] var.esx_hostname -->
<g id="node13" class="node">
<title>[root] var.esx_hostname</title>
<polygon fill="none" stroke="black" points="876.04,-108 765.04,-108 765.04,-72 882.04,-72 882.04,-102 876.04,-108"/>
<polyline fill="none" stroke="black" points="876.04,-108 876.04,-102 "/>
<polyline fill="none" stroke="black" points="882.04,-102 876.04,-102 "/>
<text text-anchor="middle" x="823.54" y="-86.3" font-family="Times New Roman,serif" font-size="14.00">var.esx_hostname</text>
</g>
<!-- [root] metal_device.this (expand)&#45;&gt;[root] var.esx_hostname -->
<g id="edge8" class="edge">
<title>[root] metal_device.this (expand)&#45;&gt;[root] var.esx_hostname</title>
<path fill="none" stroke="black" d="M615.06,-146.07C655.96,-135.27 711.44,-120.61 754.89,-109.13"/>
<polygon fill="black" stroke="black" points="756.03,-112.45 764.81,-106.51 754.25,-105.68 756.03,-112.45"/>
</g>
<!-- [root] var.metro -->
<g id="node15" class="node">
<title>[root] var.metro</title>
<polygon fill="none" stroke="black" points="338.54,-108 274.54,-108 274.54,-72 344.54,-72 344.54,-102 338.54,-108"/>
<polyline fill="none" stroke="black" points="338.54,-108 338.54,-102 "/>
<polyline fill="none" stroke="black" points="344.54,-102 338.54,-102 "/>
<text text-anchor="middle" x="309.54" y="-86.3" font-family="Times New Roman,serif" font-size="14.00">var.metro</text>
</g>
<!-- [root] metal_device.this (expand)&#45;&gt;[root] var.metro -->
<g id="edge9" class="edge">
<title>[root] metal_device.this (expand)&#45;&gt;[root] var.metro</title>
<path fill="none" stroke="black" d="M501.92,-148.22C462.74,-138.96 409.29,-125.48 354.48,-108.14"/>
<polygon fill="black" stroke="black" points="355.55,-104.8 344.96,-105.09 353.41,-111.47 355.55,-104.8"/>
</g>
<!-- [root] var.os -->
<g id="node17" class="node">
<title>[root] var.os</title>
<polygon fill="none" stroke="black" points="572.54,-108 524.54,-108 524.54,-72 578.54,-72 578.54,-102 572.54,-108"/>
<polyline fill="none" stroke="black" points="572.54,-108 572.54,-102 "/>
<polyline fill="none" stroke="black" points="578.54,-102 572.54,-102 "/>
<text text-anchor="middle" x="551.54" y="-86.3" font-family="Times New Roman,serif" font-size="14.00">var.os</text>
</g>
<!-- [root] metal_device.this (expand)&#45;&gt;[root] var.os -->
<g id="edge10" class="edge">
<title>[root] metal_device.this (expand)&#45;&gt;[root] var.os</title>
<path fill="none" stroke="black" d="M556.81,-143.7C556.04,-135.98 555.11,-126.71 554.25,-118.11"/>
<polygon fill="black" stroke="black" points="557.73,-117.71 553.25,-108.1 550.76,-118.4 557.73,-117.71"/>
</g>
<!-- [root] var.plan -->
<g id="node18" class="node">
<title>[root] var.plan</title>
<polygon fill="none" stroke="black" points="652.04,-108 597.04,-108 597.04,-72 658.04,-72 658.04,-102 652.04,-108"/>
<polyline fill="none" stroke="black" points="652.04,-108 652.04,-102 "/>
<polyline fill="none" stroke="black" points="658.04,-102 652.04,-102 "/>
<text text-anchor="middle" x="627.54" y="-86.3" font-family="Times New Roman,serif" font-size="14.00">var.plan</text>
</g>
<!-- [root] metal_device.this (expand)&#45;&gt;[root] var.plan -->
<g id="edge11" class="edge">
<title>[root] metal_device.this (expand)&#45;&gt;[root] var.plan</title>
<path fill="none" stroke="black" d="M575.6,-143.7C584.04,-135.14 594.36,-124.66 603.58,-115.3"/>
<polygon fill="black" stroke="black" points="606.15,-117.68 610.68,-108.1 601.17,-112.77 606.15,-117.68"/>
</g>
<!-- [root] metal_device_network_type.this (expand) -->
<g id="node3" class="node">
<title>[root] metal_device_network_type.this (expand)</title>
<polygon fill="none" stroke="black" points="594.04,-252 397.04,-252 397.04,-216 594.04,-216 594.04,-252"/>
<text text-anchor="middle" x="495.54" y="-230.3" font-family="Times New Roman,serif" font-size="14.00">metal_device_network_type.this</text>
</g>
<!-- [root] metal_device_network_type.this (expand)&#45;&gt;[root] metal_device.this (expand) -->
<g id="edge12" class="edge">
<title>[root] metal_device_network_type.this (expand)&#45;&gt;[root] metal_device.this (expand)</title>
<path fill="none" stroke="black" d="M511.11,-215.7C518.74,-207.22 528.06,-196.86 536.42,-187.58"/>
<polygon fill="black" stroke="black" points="539.06,-189.88 543.15,-180.1 533.86,-185.2 539.06,-189.88"/>
</g>
<!-- [root] metal_gateway.gateway (expand) -->
<g id="node4" class="node">
<title>[root] metal_gateway.gateway (expand)</title>
<polygon fill="none" stroke="black" points="508.04,-324 361.04,-324 361.04,-288 508.04,-288 508.04,-324"/>
<text text-anchor="middle" x="434.54" y="-302.3" font-family="Times New Roman,serif" font-size="14.00">metal_gateway.gateway</text>
</g>
<!-- [root] metal_reserved_ip_block.this (expand) -->
<g id="node6" class="node">
<title>[root] metal_reserved_ip_block.this (expand)</title>
<polygon fill="none" stroke="black" points="794.04,-252 613.04,-252 613.04,-216 794.04,-216 794.04,-252"/>
<text text-anchor="middle" x="703.54" y="-230.3" font-family="Times New Roman,serif" font-size="14.00">metal_reserved_ip_block.this</text>
</g>
<!-- [root] metal_gateway.gateway (expand)&#45;&gt;[root] metal_reserved_ip_block.this (expand) -->
<g id="edge13" class="edge">
<title>[root] metal_gateway.gateway (expand)&#45;&gt;[root] metal_reserved_ip_block.this (expand)</title>
<path fill="none" stroke="black" d="M500,-287.97C538.65,-277.91 587.73,-265.14 628.01,-254.65"/>
<polygon fill="black" stroke="black" points="628.99,-258.02 637.79,-252.11 627.23,-251.24 628.99,-258.02"/>
</g>
<!-- [root] metal_vlan.this (expand) -->
<g id="node7" class="node">
<title>[root] metal_vlan.this (expand)</title>
<polygon fill="none" stroke="black" points="377.04,-252 278.04,-252 278.04,-216 377.04,-216 377.04,-252"/>
<text text-anchor="middle" x="327.54" y="-230.3" font-family="Times New Roman,serif" font-size="14.00">metal_vlan.this</text>
</g>
<!-- [root] metal_gateway.gateway (expand)&#45;&gt;[root] metal_vlan.this (expand) -->
<g id="edge14" class="edge">
<title>[root] metal_gateway.gateway (expand)&#45;&gt;[root] metal_vlan.this (expand)</title>
<path fill="none" stroke="black" d="M408.37,-287.88C394.5,-278.81 377.3,-267.55 362.33,-257.76"/>
<polygon fill="black" stroke="black" points="364.1,-254.74 353.82,-252.19 360.27,-260.59 364.1,-254.74"/>
</g>
<!-- [root] metal_port_vlan_attachment.this (expand) -->
<g id="node5" class="node">
<title>[root] metal_port_vlan_attachment.this (expand)</title>
<polygon fill="none" stroke="black" points="343.04,-324 146.04,-324 146.04,-288 343.04,-288 343.04,-324"/>
<text text-anchor="middle" x="244.54" y="-302.3" font-family="Times New Roman,serif" font-size="14.00">metal_port_vlan_attachment.this</text>
</g>
<!-- [root] metal_port_vlan_attachment.this (expand)&#45;&gt;[root] metal_device_network_type.this (expand) -->
<g id="edge15" class="edge">
<title>[root] metal_port_vlan_attachment.this (expand)&#45;&gt;[root] metal_device_network_type.this (expand)</title>
<path fill="none" stroke="black" d="M305.62,-287.97C341.45,-277.97 386.9,-265.3 424.35,-254.85"/>
<polygon fill="black" stroke="black" points="425.49,-258.17 434.19,-252.11 423.61,-251.43 425.49,-258.17"/>
</g>
<!-- [root] var.vlans -->
<g id="node19" class="node">
<title>[root] var.vlans</title>
<polygon fill="none" stroke="black" points="272.54,-180 212.54,-180 212.54,-144 278.54,-144 278.54,-174 272.54,-180"/>
<polyline fill="none" stroke="black" points="272.54,-180 272.54,-174 "/>
<polyline fill="none" stroke="black" points="278.54,-174 272.54,-174 "/>
<text text-anchor="middle" x="245.54" y="-158.3" font-family="Times New Roman,serif" font-size="14.00">var.vlans</text>
</g>
<!-- [root] metal_port_vlan_attachment.this (expand)&#45;&gt;[root] var.vlans -->
<g id="edge16" class="edge">
<title>[root] metal_port_vlan_attachment.this (expand)&#45;&gt;[root] var.vlans</title>
<path fill="none" stroke="black" d="M244.66,-287.87C244.83,-263.67 245.14,-219.21 245.35,-190.39"/>
<polygon fill="black" stroke="black" points="248.85,-190.21 245.42,-180.19 241.85,-190.16 248.85,-190.21"/>
</g>
<!-- [root] metal_reserved_ip_block.this (expand)&#45;&gt;[root] metal_device.this (expand) -->
<g id="edge17" class="edge">
<title>[root] metal_reserved_ip_block.this (expand)&#45;&gt;[root] metal_device.this (expand)</title>
<path fill="none" stroke="black" d="M668.07,-215.88C648.42,-206.39 623.82,-194.51 602.91,-184.42"/>
<polygon fill="black" stroke="black" points="604.42,-181.26 593.9,-180.07 601.38,-187.57 604.42,-181.26"/>
</g>
<!-- [root] var.num_public_ip -->
<g id="node16" class="node">
<title>[root] var.num_public_ip</title>
<polygon fill="none" stroke="black" points="758.54,-180 642.54,-180 642.54,-144 764.54,-144 764.54,-174 758.54,-180"/>
<polyline fill="none" stroke="black" points="758.54,-180 758.54,-174 "/>
<polyline fill="none" stroke="black" points="764.54,-174 758.54,-174 "/>
<text text-anchor="middle" x="703.54" y="-158.3" font-family="Times New Roman,serif" font-size="14.00">var.num_public_ip</text>
</g>
<!-- [root] metal_reserved_ip_block.this (expand)&#45;&gt;[root] var.num_public_ip -->
<g id="edge18" class="edge">
<title>[root] metal_reserved_ip_block.this (expand)&#45;&gt;[root] var.num_public_ip</title>
<path fill="none" stroke="black" d="M703.54,-215.7C703.54,-207.98 703.54,-198.71 703.54,-190.11"/>
<polygon fill="black" stroke="black" points="707.04,-190.1 703.54,-180.1 700.04,-190.1 707.04,-190.1"/>
</g>
<!-- [root] metal_vlan.this (expand)&#45;&gt;[root] data.metal_project.this (expand) -->
<g id="edge19" class="edge">
<title>[root] metal_vlan.this (expand)&#45;&gt;[root] data.metal_project.this (expand)</title>
<path fill="none" stroke="black" d="M340.45,-215.87C359.08,-191.14 393.67,-145.24 415.32,-116.51"/>
<polygon fill="black" stroke="black" points="418.37,-118.28 421.59,-108.19 412.77,-114.07 418.37,-118.28"/>
</g>
<!-- [root] metal_vlan.this (expand)&#45;&gt;[root] var.metro -->
<g id="edge20" class="edge">
<title>[root] metal_vlan.this (expand)&#45;&gt;[root] var.metro</title>
<path fill="none" stroke="black" d="M325.37,-215.87C322.3,-191.67 316.67,-147.21 313.01,-118.39"/>
<polygon fill="black" stroke="black" points="316.45,-117.67 311.72,-108.19 309.5,-118.55 316.45,-117.67"/>
</g>
<!-- [root] metal_vlan.this (expand)&#45;&gt;[root] var.vlans -->
<g id="edge21" class="edge">
<title>[root] metal_vlan.this (expand)&#45;&gt;[root] var.vlans</title>
<path fill="none" stroke="black" d="M307.27,-215.7C297.04,-206.97 284.48,-196.24 273.36,-186.75"/>
<polygon fill="black" stroke="black" points="275.45,-183.94 265.58,-180.1 270.91,-189.26 275.45,-183.94"/>
</g>
<!-- [root] output.metal_gateway_ip -->
<g id="node8" class="node">
<title>[root] output.metal_gateway_ip</title>
<polygon fill="none" stroke="black" points="1165.54,-396 1015.54,-396 1015.54,-360 1171.54,-360 1171.54,-390 1165.54,-396"/>
<polyline fill="none" stroke="black" points="1165.54,-396 1165.54,-390 "/>
<polyline fill="none" stroke="black" points="1171.54,-390 1165.54,-390 "/>
<text text-anchor="middle" x="1093.54" y="-374.3" font-family="Times New Roman,serif" font-size="14.00">output.metal_gateway_ip</text>
</g>
<!-- [root] output.metal_gateway_ip&#45;&gt;[root] metal_reserved_ip_block.this (expand) -->
<g id="edge22" class="edge">
<title>[root] output.metal_gateway_ip&#45;&gt;[root] metal_reserved_ip_block.this (expand)</title>
<path fill="none" stroke="black" d="M1119.42,-359.67C1144.18,-341.03 1174.96,-310.96 1154.54,-288 1131.67,-262.28 930.1,-246.99 804.3,-239.86"/>
<polygon fill="black" stroke="black" points="804.43,-236.36 794.25,-239.3 804.04,-243.35 804.43,-236.36"/>
</g>
<!-- [root] output.public_ip_block -->
<g id="node9" class="node">
<title>[root] output.public_ip_block</title>
<polygon fill="none" stroke="black" points="750.54,-396 608.54,-396 608.54,-360 756.54,-360 756.54,-390 750.54,-396"/>
<polyline fill="none" stroke="black" points="750.54,-396 750.54,-390 "/>
<polyline fill="none" stroke="black" points="756.54,-390 750.54,-390 "/>
<text text-anchor="middle" x="682.54" y="-374.3" font-family="Times New Roman,serif" font-size="14.00">output.public_ip_block</text>
</g>
<!-- [root] output.public_ip_block&#45;&gt;[root] metal_reserved_ip_block.this (expand) -->
<g id="edge23" class="edge">
<title>[root] output.public_ip_block&#45;&gt;[root] metal_reserved_ip_block.this (expand)</title>
<path fill="none" stroke="black" d="M608.3,-362.26C587.77,-354.41 567.79,-342.39 555.54,-324 546.67,-310.68 546.33,-301.08 555.54,-288 567.17,-271.49 584.44,-260.09 603.12,-252.24"/>
<polygon fill="black" stroke="black" points="604.61,-255.41 612.69,-248.55 602.1,-248.88 604.61,-255.41"/>
</g>
<!-- [root] output.usable_public_ip -->
<g id="node10" class="node">
<title>[root] output.usable_public_ip</title>
<polygon fill="none" stroke="black" points="920.54,-396 774.54,-396 774.54,-360 926.54,-360 926.54,-390 920.54,-396"/>
<polyline fill="none" stroke="black" points="920.54,-396 920.54,-390 "/>
<polyline fill="none" stroke="black" points="926.54,-390 920.54,-390 "/>
<text text-anchor="middle" x="850.54" y="-374.3" font-family="Times New Roman,serif" font-size="14.00">output.usable_public_ip</text>
</g>
<!-- [root] local.first_public_ip (expand) -->
<g id="node21" class="node">
<title>[root] local.first_public_ip (expand)</title>
<ellipse fill="none" stroke="black" cx="1003.54" cy="-306" rx="141.88" ry="18"/>
<text text-anchor="middle" x="1003.54" y="-302.3" font-family="Times New Roman,serif" font-size="14.00">[root] local.first_public_ip (expand)</text>
</g>
<!-- [root] output.usable_public_ip&#45;&gt;[root] local.first_public_ip (expand) -->
<g id="edge24" class="edge">
<title>[root] output.usable_public_ip&#45;&gt;[root] local.first_public_ip (expand)</title>
<path fill="none" stroke="black" d="M887.97,-359.88C909.18,-350.17 935.87,-337.96 958.25,-327.72"/>
<polygon fill="black" stroke="black" points="959.92,-330.81 967.55,-323.47 957,-324.44 959.92,-330.81"/>
</g>
<!-- [root] local.last_public_ip (expand) -->
<g id="node22" class="node">
<title>[root] local.last_public_ip (expand)</title>
<ellipse fill="none" stroke="black" cx="704.54" cy="-306" rx="139.98" ry="18"/>
<text text-anchor="middle" x="704.54" y="-302.3" font-family="Times New Roman,serif" font-size="14.00">[root] local.last_public_ip (expand)</text>
</g>
<!-- [root] output.usable_public_ip&#45;&gt;[root] local.last_public_ip (expand) -->
<g id="edge25" class="edge">
<title>[root] output.usable_public_ip&#45;&gt;[root] local.last_public_ip (expand)</title>
<path fill="none" stroke="black" d="M814.82,-359.88C794.68,-350.22 769.35,-338.07 748.04,-327.86"/>
<polygon fill="black" stroke="black" points="749.41,-324.63 738.88,-323.47 746.39,-330.94 749.41,-324.63"/>
</g>
<!-- [root] local.esxcli (expand) -->
<g id="node20" class="node">
<title>[root] local.esxcli (expand)</title>
<ellipse fill="none" stroke="black" cx="108.54" cy="-234" rx="108.58" ry="18"/>
<text text-anchor="middle" x="108.54" y="-230.3" font-family="Times New Roman,serif" font-size="14.00">[root] local.esxcli (expand)</text>
</g>
<!-- [root] local.esxcli (expand)&#45;&gt;[root] var.vlans -->
<g id="edge3" class="edge">
<title>[root] local.esxcli (expand)&#45;&gt;[root] var.vlans</title>
<path fill="none" stroke="black" d="M140.32,-216.76C159.1,-207.17 183.11,-194.9 203.45,-184.51"/>
<polygon fill="black" stroke="black" points="205.2,-187.54 212.51,-179.88 202.01,-181.31 205.2,-187.54"/>
</g>
<!-- [root] local.first_public_ip (expand)&#45;&gt;[root] metal_reserved_ip_block.this (expand) -->
<g id="edge4" class="edge">
<title>[root] local.first_public_ip (expand)&#45;&gt;[root] metal_reserved_ip_block.this (expand)</title>
<path fill="none" stroke="black" d="M938.81,-289.9C894.18,-279.48 834.45,-265.55 786.35,-254.32"/>
<polygon fill="black" stroke="black" points="787.11,-250.91 776.58,-252.04 785.52,-257.72 787.11,-250.91"/>
</g>
<!-- [root] local.last_public_ip (expand)&#45;&gt;[root] metal_reserved_ip_block.this (expand) -->
<g id="edge5" class="edge">
<title>[root] local.last_public_ip (expand)&#45;&gt;[root] metal_reserved_ip_block.this (expand)</title>
<path fill="none" stroke="black" d="M704.29,-287.7C704.18,-279.98 704.05,-270.71 703.93,-262.11"/>
<polygon fill="black" stroke="black" points="707.43,-262.05 703.78,-252.1 700.43,-262.15 707.43,-262.05"/>
</g>
<!-- [root] provider[&quot;registry.terraform.io/equinix/metal&quot;] (close) -->
<g id="node23" class="node">
<title>[root] provider[&quot;registry.terraform.io/equinix/metal&quot;] (close)</title>
<ellipse fill="none" stroke="black" cx="363.54" cy="-378" rx="227.46" ry="18"/>
<text text-anchor="middle" x="363.54" y="-374.3" font-family="Times New Roman,serif" font-size="14.00">[root] provider[&quot;registry.terraform.io/equinix/metal&quot;] (close)</text>
</g>
<!-- [root] provider[&quot;registry.terraform.io/equinix/metal&quot;] (close)&#45;&gt;[root] metal_gateway.gateway (expand) -->
<g id="edge26" class="edge">
<title>[root] provider[&quot;registry.terraform.io/equinix/metal&quot;] (close)&#45;&gt;[root] metal_gateway.gateway (expand)</title>
<path fill="none" stroke="black" d="M381.09,-359.7C389.77,-351.14 400.4,-340.66 409.89,-331.3"/>
<polygon fill="black" stroke="black" points="412.53,-333.62 417.19,-324.1 407.61,-328.63 412.53,-333.62"/>
</g>
<!-- [root] provider[&quot;registry.terraform.io/equinix/metal&quot;] (close)&#45;&gt;[root] metal_port_vlan_attachment.this (expand) -->
<g id="edge27" class="edge">
<title>[root] provider[&quot;registry.terraform.io/equinix/metal&quot;] (close)&#45;&gt;[root] metal_port_vlan_attachment.this (expand)</title>
<path fill="none" stroke="black" d="M334.73,-360.05C319.06,-350.84 299.48,-339.32 282.57,-329.37"/>
<polygon fill="black" stroke="black" points="283.89,-326.09 273.49,-324.03 280.34,-332.12 283.89,-326.09"/>
</g>
<!-- [root] root -->
<g id="node24" class="node">
<title>[root] root</title>
<ellipse fill="none" stroke="black" cx="682.54" cy="-450" rx="49.29" ry="18"/>
<text text-anchor="middle" x="682.54" y="-446.3" font-family="Times New Roman,serif" font-size="14.00">[root] root</text>
</g>
<!-- [root] root&#45;&gt;[root] output.metal_gateway_ip -->
<g id="edge29" class="edge">
<title>[root] root&#45;&gt;[root] output.metal_gateway_ip</title>
<path fill="none" stroke="black" d="M726.52,-441.51C792.76,-430.23 919.46,-408.65 1005.24,-394.04"/>
<polygon fill="black" stroke="black" points="1005.96,-397.47 1015.23,-392.34 1004.78,-390.57 1005.96,-397.47"/>
</g>
<!-- [root] root&#45;&gt;[root] output.public_ip_block -->
<g id="edge30" class="edge">
<title>[root] root&#45;&gt;[root] output.public_ip_block</title>
<path fill="none" stroke="black" d="M682.54,-431.7C682.54,-423.98 682.54,-414.71 682.54,-406.11"/>
<polygon fill="black" stroke="black" points="686.04,-406.1 682.54,-396.1 679.04,-406.1 686.04,-406.1"/>
</g>
<!-- [root] root&#45;&gt;[root] output.usable_public_ip -->
<g id="edge31" class="edge">
<title>[root] root&#45;&gt;[root] output.usable_public_ip</title>
<path fill="none" stroke="black" d="M713.75,-436C738.04,-425.87 772.25,-411.62 800.38,-399.9"/>
<polygon fill="black" stroke="black" points="801.78,-403.11 809.66,-396.03 799.09,-396.65 801.78,-403.11"/>
</g>
<!-- [root] root&#45;&gt;[root] local.esxcli (expand) -->
<g id="edge28" class="edge">
<title>[root] root&#45;&gt;[root] local.esxcli (expand)</title>
<path fill="none" stroke="black" d="M633.26,-447.77C504.12,-444.06 163.35,-431.02 127.54,-396 92.16,-361.4 96.42,-298.39 102.55,-262.31"/>
<polygon fill="black" stroke="black" points="106.07,-262.51 104.47,-252.04 99.19,-261.22 106.07,-262.51"/>
</g>
<!-- [root] root&#45;&gt;[root] provider[&quot;registry.terraform.io/equinix/metal&quot;] (close) -->
<g id="edge32" class="edge">
<title>[root] root&#45;&gt;[root] provider[&quot;registry.terraform.io/equinix/metal&quot;] (close)</title>
<path fill="none" stroke="black" d="M641.16,-439.92C592.12,-429.16 509.17,-410.96 446.68,-397.24"/>
<polygon fill="black" stroke="black" points="447.36,-393.81 436.84,-395.08 445.86,-400.65 447.36,-393.81"/>
</g>
</g>
</svg>
